<?xml version="1.0" encoding="UTF-8"?>
<!DOCTYPE svg PUBLIC "-//W3C//DTD SVG 1.1//EN" "http://www.w3.org/Graphics/SVG/1.1/DTD/svg11.dtd">
<!-- Creator: CorelDRAW X7 -->
<svg xmlns="http://www.w3.org/2000/svg" xml:space="preserve" width="1080px" height="1080px" version="1.1" style="shape-rendering:geometricPrecision; text-rendering:geometricPrecision; image-rendering:optimizeQuality; fill-rule:evenodd; clip-rule:evenodd"
viewBox="0 0 10800 10800"
 xmlns:xlink="http://www.w3.org/1999/xlink">
 <defs>
  <style type="text/css">
   <![CDATA[
    .str0 {stroke:#D48A00;stroke-width:0.54864}
    .fil1 {fill:none}
    .fil0 {fill:#425C39}
    .fil2 {fill:white}
   ]]>
  </style>
 </defs>
 <g id="Layer_x0020_1">
  <metadata id="CorelCorpID_0Corel-Layer"/>
  <polygon class="fil0" points="0,0 10800,0 10800,10800 0,10800 "/>
  <path class="fil1 str0" d="M1785 0c-606,751 -1292,1146 -1292,1146"/>
  <path class="fil1 str0" d="M493 1146c3,-344 -112,-776 -388,-1146"/>
  <path class="fil1 str0" d="M0 830c179,78 347,185 493,316"/>
  <path class="fil1 str0" d="M493 1146c49,835 870,1423 1175,1547"/>
  <path class="fil1 str0" d="M2308 3192c-96,-816 -1115,-1644 -1815,-2046"/>
  <path class="fil1 str0" d="M1668 2693c1975,106 2966,1863 3459,2720"/>
  <path class="fil1 str0" d="M2308 3192c968,-2 2166,1428 2819,2221"/>
  <path class="fil1 str0" d="M2840 3679c-266,0 -532,-149 -532,-487"/>
  <path class="fil1 str0" d="M2840 3679c287,623 976,1491 2287,1734"/>
  <path class="fil1 str0" d="M493 1146c1444,426 4387,2533 4634,4267"/>
  <path class="fil1 str0" d="M10800 5195c-2463,-1812 -6173,-3409 -10307,-4049"/>
  <path class="fil1 str0" d="M5020 1530c390,1193 512,2669 107,3883"/>
  <path class="fil1 str0" d="M5020 1530c358,88 761,556 889,884"/>
  <path class="fil1 str0" d="M5909 2414c0,1430 -320,2279 -782,2999"/>
  <path class="fil1 str0" d="M6068 0c1806,2045 3731,4536 4732,5802"/>
  <path class="fil1 str0" d="M10800 3545c-1034,-1183 -2278,-2411 -3626,-3545"/>
  <path class="fil1 str0" d="M10405 0c96,609 59,1305 73,1927"/>
  <path class="fil1 str0" d="M10478 1927c144,216 249,659 322,1208"/>
  <path class="fil1 str0" d="M10478 1927c-909,685 -2070,3477 -396,4606"/>
  <path class="fil1 str0" d="M5127 5413c461,-376 2935,-879 5673,-1219"/>
  <path class="fil1 str0" d="M6518 9084c-195,-1091 -1140,-3283 -1391,-3671"/>
  <path class="fil1 str0" d="M5832 10800c-749,-2335 -936,-5301 -705,-5387"/>
  <path class="fil1 str0" d="M4648 8319c823,-86 1602,503 1870,765"/>
  <path class="fil1 str0" d="M4648 8319c-107,296 0,1241 401,1532"/>
  <path class="fil1 str0" d="M5049 9851c341,-114 1170,-428 1469,-767"/>
  <path class="fil1 str0" d="M10082 6533c-588,-467 -3214,-1275 -4955,-1120"/>
  <path class="fil1 str0" d="M5127 5413c874,-617 4702,-67 5673,472"/>
  <path class="fil1 str0" d="M7538 10800c-354,-1231 -1229,-3952 -2411,-5387"/>
  <path class="fil1 str0" d="M7159 10800c-332,-502 -584,-1140 -641,-1716"/>
  <path class="fil1 str0" d="M6518 9084c253,562 750,1268 1170,1716"/>
  <path class="fil1 str0" d="M6284 10664c-70,-677 61,-1197 234,-1580"/>
  <path class="fil1 str0" d="M6424 10800c-48,-61 -96,-108 -140,-136"/>
  <path class="fil1 str0" d="M10082 6533c180,0 422,-78 718,-208"/>
  <path class="fil1 str0" d="M9027 7297c726,0 1154,702 1290,907"/>
  <path class="fil1 str0" d="M9027 7297c202,-374 828,-728 1055,-764"/>
  <path class="fil1 str0" d="M10082 6533c-588,1174 -2692,1703 -3564,2551"/>
  <path class="fil1 str0" d="M8569 10800c688,-617 1448,-1266 2231,-1909"/>
  <path class="fil1 str0" d="M10082 6533c109,216 371,461 718,704"/>
  <path class="fil1 str0" d="M10317 8204c-103,-702 171,-1451 483,-1999"/>
  <path class="fil1 str0" d="M10317 8204c147,-91 367,316 367,568"/>
  <path class="fil1 str0" d="M10317 8204c52,-141 250,-325 483,-491"/>
  <path class="fil1 str0" d="M10684 8772c39,0 78,-1 116,-4"/>
  <path class="fil1 str0" d="M10684 8772c30,16 69,32 116,46"/>
  <path class="fil1 str0" d="M10317 8204c148,236 319,650 483,1121"/>
  <path class="fil1 str0" d="M10800 10800c-1473,-2367 -3525,-4416 -5673,-5387"/>
  <path class="fil1 str0" d="M5127 5413c718,75 2533,2977 2607,5387"/>
  <path class="fil1 str0" d="M8788 10800c-1830,-1141 -3536,-3037 -3661,-5387"/>
  <path class="fil1 str0" d="M6051 6432c733,195 2367,2500 2815,3623"/>
  <path class="fil1 str0" d="M8372 10800c219,-1253 -2363,-4234 -3245,-5387"/>
  <path class="fil1 str0" d="M8069 10796c1,-335 -2430,-5271 -2942,-5383"/>
  <path class="fil1 str0" d="M6051 6432c78,-272 -51,-1026 -924,-1019"/>
  <path class="fil1 str0" d="M10352 10800c-480,-378 -1033,-706 -1486,-745"/>
  <path class="fil1 str0" d="M9512 10800c-335,-267 -591,-535 -646,-745"/>
  <path class="fil1 str0" d="M9871 10800c-191,-282 -825,-605 -1005,-745"/>
  <path class="fil1 str0" d="M10800 6875c-1894,968 -3580,1876 -4282,2209"/>
  <path class="fil1 str0" d="M10317 8204c104,-74 274,-117 483,-137"/>
  <path class="fil1 str0" d="M10082 6533c-3,477 286,1065 718,1666"/>
  <path class="fil1 str0" d="M9230 10760c153,-94 460,-53 609,40"/>
  <line class="fil1 str0" x1="8069" y1="10796" x2="8093" y2= "10800" />
  <path class="fil2" d="M1705 8976c119,12 212,56 279,132 67,77 101,179 101,307 0,89 -21,167 -64,235 -42,68 -102,120 -180,157 -78,37 -168,56 -271,58l-105 0c-105,0 -198,-19 -279,-56 -80,-38 -142,-91 -186,-161 -43,-70 -65,-151 -65,-242 0,-124 33,-223 100,-298 67,-76 162,-119 285,-132l0 194c-81,9 -139,33 -174,70 -36,38 -54,93 -54,166 0,84 31,149 93,194 62,46 152,69 271,70l100 0c121,0 213,-22 276,-65 64,-43 96,-107 96,-190 0,-76 -17,-134 -52,-172 -34,-39 -91,-63 -171,-73l0 -194zm-166 -1066c110,0 206,20 289,57 83,38 146,92 190,163 45,70 67,151 67,243 0,91 -22,171 -67,242 -44,71 -107,126 -189,165 -82,38 -177,58 -284,58l-63 0c-109,0 -205,-19 -289,-58 -83,-38 -147,-93 -191,-163 -45,-70 -67,-151 -67,-242 0,-92 22,-172 66,-243 44,-70 106,-125 189,-163 82,-38 178,-58 287,-59l62 0zm-58 195c-124,0 -219,23 -285,70 -66,47 -99,114 -99,200 0,83 33,149 99,196 65,48 158,72 279,73l64 0c123,0 218,-24 285,-72 67,-48 100,-114 100,-199 0,-86 -32,-152 -98,-199 -65,-46 -161,-69 -287,-69l-58 0zm588 -1276l0 195 -793 498 793 0 0 194 -1118 0 0 -194 796 -500 -796 0 0 -193 1118 0zm-243 -624l-875 -284 0 -213 1118 402 0 189 -1118 400 0 -212 875 -282zm-256 -1277l0 459 343 0 0 -537 156 0 0 732 -1118 0 0 -726 157 0 0 531 308 0 0 -459 154 0zm70 -647l0 217 429 0 0 194 -1118 0 0 -393c0,-129 29,-229 87,-299 58,-70 142,-105 251,-105 75,0 138,18 188,54 51,36 90,87 117,151l465 -251 10 0 0 208 -429 224zm-158 217l0 -200c0,-65 -16,-117 -49,-153 -33,-37 -78,-56 -135,-56 -60,0 -107,17 -139,51 -33,34 -50,85 -51,153l0 205 374 0zm299 -1372c-49,0 -87,17 -114,51 -26,35 -53,97 -80,187 -27,91 -58,162 -91,216 -64,101 -148,152 -251,152 -90,0 -164,-36 -222,-110 -59,-73 -88,-169 -88,-286 0,-78 14,-147 43,-208 29,-61 69,-109 123,-144 53,-34 111,-52 176,-52l0 194c-58,0 -104,18 -137,55 -33,36 -49,88 -49,157 0,63 13,112 40,148 27,35 65,52 114,52 41,0 75,-19 102,-57 27,-38 54,-100 80,-187 25,-87 55,-157 88,-210 33,-53 71,-91 114,-116 43,-24 93,-37 150,-37 94,0 168,36 223,107 55,72 83,169 83,291 0,81 -15,155 -45,223 -30,68 -72,121 -124,158 -53,38 -115,57 -185,57l0 -194c64,0 113,-21 148,-63 34,-42 52,-102 52,-181 0,-67 -14,-118 -41,-152 -28,-34 -64,-51 -109,-51zm29 -991l0 433 259 91 0 202 -1118 -422 0 -175 1118 -423 0 203 -259 91zm-158 379l0 -324 -464 162 464 162zm129 -1385c-49,0 -87,18 -114,52 -26,35 -53,97 -80,187 -27,90 -58,162 -91,215 -64,102 -148,153 -251,153 -90,0 -164,-37 -222,-110 -59,-74 -88,-169 -88,-286 0,-78 14,-147 43,-208 29,-61 69,-109 123,-144 53,-35 111,-52 176,-52l0 193c-58,0 -104,19 -137,55 -33,37 -49,89 -49,157 0,64 13,113 40,148 27,35 65,53 114,53 41,0 75,-19 102,-57 27,-38 54,-100 80,-187 25,-87 55,-157 88,-210 33,-53 71,-91 114,-116 43,-25 93,-37 150,-37 94,0 168,36 223,107 55,71 83,169 83,291 0,81 -15,155 -45,223 -30,68 -72,121 -124,158 -53,38 -115,57 -185,57l0 -195c64,0 113,-21 148,-63 34,-42 52,-102 52,-180 0,-68 -14,-119 -41,-153 -28,-34 -64,-51 -109,-51z"/>
  <path class="fil2" d="M2436 9599c-10,-1 -20,-2 -31,-2 -35,0 -58,13 -71,40l0 232 -76 0 0 -339 73 0 2 38c18,-30 44,-44 76,-44 11,0 20,1 27,4l0 71zm192 277c-49,0 -88,-16 -118,-46 -30,-30 -45,-71 -45,-122l0 -9c0,-34 7,-64 20,-91 13,-26 31,-47 55,-62 24,-15 50,-22 79,-22 46,0 82,14 107,44 25,29 38,71 38,125l0 31 -222 0c2,28 12,50 28,66 17,17 37,25 62,25 35,0 64,-14 86,-43l41 40c-14,20 -32,36 -55,47 -23,11 -48,17 -76,17zm-9 -291c-21,0 -38,7 -51,22 -13,14 -21,35 -25,61l146 0 0 -6c-2,-25 -9,-45 -21,-58 -12,-13 -28,-19 -49,-19zm394 192c0,-13 -5,-24 -16,-31 -12,-7 -30,-13 -56,-19 -26,-5 -48,-12 -65,-21 -38,-18 -57,-45 -57,-80 0,-29 12,-53 37,-73 24,-20 56,-29 94,-29 40,0 73,10 98,30 25,20 38,46 38,78l-77 0c0,-15 -5,-27 -16,-37 -11,-9 -25,-14 -43,-14 -17,0 -30,4 -41,11 -11,8 -16,18 -16,31 0,12 5,21 15,28 10,6 30,13 59,19 30,7 54,15 71,24 17,9 30,20 38,33 8,12 12,28 12,46 0,31 -12,55 -38,74 -25,19 -58,29 -99,29 -28,0 -53,-5 -75,-15 -21,-10 -38,-24 -50,-42 -13,-17 -19,-36 -19,-57l74 0c2,18 8,32 21,42 12,10 29,15 50,15 20,0 35,-4 46,-12 10,-8 15,-18 15,-30zm223 92l-77 0 0 -339 77 0 0 339zm-81 -428c0,-11 3,-21 11,-29 7,-8 18,-12 32,-12 14,0 24,4 32,12 7,8 11,18 11,29 0,12 -4,22 -11,29 -8,8 -18,12 -32,12 -14,0 -25,-4 -32,-12 -8,-7 -11,-17 -11,-29zm354 336c0,-13 -6,-24 -17,-31 -11,-7 -30,-13 -55,-19 -26,-5 -48,-12 -65,-21 -38,-18 -58,-45 -58,-80 0,-29 13,-53 38,-73 24,-20 56,-29 94,-29 40,0 73,10 98,30 25,20 37,46 37,78l-76 0c0,-15 -5,-27 -16,-37 -11,-9 -25,-14 -43,-14 -17,0 -31,4 -41,11 -11,8 -16,18 -16,31 0,12 5,21 15,28 9,6 29,13 59,19 30,7 54,15 71,24 17,9 29,20 38,33 8,12 12,28 12,46 0,31 -13,55 -38,74 -25,19 -58,29 -99,29 -28,0 -53,-5 -75,-15 -22,-10 -38,-24 -51,-42 -12,-17 -18,-36 -18,-57l74 0c1,18 8,32 21,42 12,10 29,15 50,15 20,0 35,-4 45,-12 11,-8 16,-18 16,-30zm237 -329l0 82 60 0 0 57 -60 0 0 189c0,13 3,22 8,28 5,6 14,9 27,9 9,0 18,-1 27,-3l0 59c-17,4 -34,7 -50,7 -59,0 -88,-33 -88,-97l0 -192 -56 0 0 -57 56 0 0 -82 76 0zm268 428c-49,0 -88,-16 -118,-46 -30,-30 -45,-71 -45,-122l0 -9c0,-34 7,-64 20,-91 13,-26 31,-47 55,-62 23,-15 50,-22 79,-22 46,0 82,14 107,44 25,29 38,71 38,125l0 31 -222 0c2,28 12,50 28,66 17,17 37,25 62,25 35,0 64,-14 85,-43l42 40c-14,20 -32,36 -55,47 -23,11 -48,17 -76,17zm-9 -291c-21,0 -38,7 -51,22 -13,14 -21,35 -25,61l146 0 0 -6c-2,-25 -9,-45 -21,-58 -12,-13 -28,-19 -49,-19zm103 -111l0 4 -62 0 -47 -49 -46 49 -61 0 0 -4 85 -87 45 0 86 87zm172 56l2 39c25,-30 58,-45 99,-45 70,0 106,40 108,121l0 224 -77 0 0 -220c0,-21 -4,-37 -14,-48 -9,-10 -24,-15 -45,-15 -31,0 -54,14 -69,42l0 241 -76 0 0 -339 72 0zm426 285c19,0 34,-6 47,-17 13,-11 19,-25 20,-41l72 0c-1,21 -7,41 -20,59 -12,19 -29,33 -50,44 -21,10 -44,16 -68,16 -48,0 -86,-16 -113,-46 -28,-31 -42,-74 -42,-128l0 -8c0,-51 14,-93 41,-124 28,-31 66,-46 113,-46 41,0 74,11 99,35 25,23 39,54 40,93l-72 0c-1,-20 -7,-36 -20,-49 -12,-12 -28,-18 -47,-18 -25,0 -44,9 -58,26 -13,18 -20,45 -20,82l0 12c0,37 7,64 20,82 13,19 33,28 58,28zm278 54l-77 0 0 -339 77 0 0 339zm-81 -428c0,-11 3,-21 11,-29 7,-8 18,-12 32,-12 14,0 24,4 32,12 7,8 11,18 11,29 0,12 -4,22 -11,29 -8,8 -18,12 -32,12 -14,0 -25,-4 -32,-12 -8,-7 -11,-17 -11,-29zm367 428c-4,-6 -7,-17 -9,-31 -24,25 -54,38 -89,38 -34,0 -62,-10 -84,-30 -21,-19 -32,-43 -32,-72 0,-36 13,-64 40,-83 27,-20 66,-29 116,-29l46 0 0 -23c0,-17 -5,-31 -14,-42 -10,-10 -25,-16 -45,-16 -18,0 -32,5 -43,13 -11,9 -17,20 -17,34l-76 0c0,-19 6,-36 19,-53 12,-16 29,-29 50,-38 21,-9 45,-13 71,-13 40,0 72,10 95,30 24,19 36,48 37,84l0 153c0,30 4,55 12,73l0 5 -77 0zm-84 -54c15,0 29,-4 42,-11 14,-8 24,-18 30,-30l0 -64 -41 0c-28,0 -49,5 -63,15 -15,10 -22,23 -22,42 0,14 5,26 15,35 10,8 23,13 39,13zm538 61c-48,0 -87,-16 -117,-46 -30,-30 -46,-71 -46,-122l0 -9c0,-34 7,-64 20,-91 13,-26 32,-47 55,-62 24,-15 50,-22 79,-22 47,0 82,14 107,44 26,29 38,71 38,125l0 31 -222 0c3,28 12,50 28,66 17,17 38,25 62,25 35,0 64,-14 86,-43l41 40c-14,20 -32,36 -55,47 -22,11 -48,17 -76,17zm-9 -291c-21,0 -38,7 -51,22 -13,14 -21,35 -24,61l145 0 0 -6c-2,-25 -9,-45 -20,-58 -12,-13 -29,-19 -50,-19zm504 230c19,0 34,-6 47,-17 13,-11 19,-25 20,-41l72 0c-1,21 -8,41 -20,59 -12,19 -29,33 -50,44 -21,10 -44,16 -69,16 -47,0 -85,-16 -112,-46 -28,-31 -42,-74 -42,-128l0 -8c0,-51 14,-93 41,-124 28,-31 66,-46 113,-46 41,0 74,11 99,35 25,23 39,54 40,93l-72 0c-1,-20 -7,-36 -20,-49 -12,-12 -28,-18 -47,-18 -25,0 -44,9 -58,26 -13,18 -20,45 -20,82l0 12c0,37 7,64 20,82 13,19 32,28 58,28zm182 -118c0,-34 7,-64 20,-90 13,-27 32,-48 56,-62 23,-14 51,-21 82,-21 46,0 83,14 111,44 29,29 44,68 47,117l0 18c0,34 -6,63 -19,90 -13,26 -32,47 -56,61 -24,15 -51,22 -83,22 -47,0 -86,-16 -115,-48 -28,-32 -43,-75 -43,-128l0 -3zm76 6c0,35 8,62 22,82 15,20 35,30 60,30 26,0 46,-10 61,-30 14,-21 21,-50 21,-89 0,-34 -7,-61 -22,-81 -15,-20 -35,-30 -60,-30 -25,0 -45,9 -59,29 -15,20 -23,50 -23,89zm375 -173l2 39c26,-30 58,-45 99,-45 71,0 107,40 108,121l0 224 -76 0 0 -220c0,-21 -5,-37 -14,-48 -9,-10 -25,-15 -46,-15 -30,0 -53,14 -68,42l0 241 -77 0 0 -339 72 0zm407 243l72 -243 78 0 -117 339 -67 0 -118 -339 79 0 73 243zm343 103c-48,0 -87,-16 -117,-46 -30,-30 -45,-71 -45,-122l0 -9c0,-34 6,-64 19,-91 14,-26 32,-47 56,-62 23,-15 49,-22 79,-22 46,0 81,14 107,44 25,29 37,71 37,125l0 31 -221 0c2,28 11,50 28,66 16,17 37,25 62,25 35,0 63,-14 85,-43l41 40c-13,20 -32,36 -54,47 -23,11 -48,17 -77,17zm-9 -291c-21,0 -38,7 -50,22 -13,14 -22,35 -25,61l145 0 0 -6c-1,-25 -8,-45 -20,-58 -12,-13 -29,-19 -50,-19zm382 14c-10,-1 -20,-2 -31,-2 -35,0 -58,13 -70,40l0 232 -76 0 0 -339 72 0 2 38c19,-30 44,-44 77,-44 11,0 20,1 27,4l-1 71zm29 98c0,-53 13,-95 37,-126 25,-32 58,-47 99,-47 39,0 69,13 91,40l4 -34 69 0 0 329c0,45 -14,80 -42,105 -28,26 -65,39 -112,39 -25,0 -49,-5 -73,-16 -24,-10 -42,-23 -54,-40l36 -46c23,28 52,42 86,42 26,0 46,-7 60,-21 15,-14 22,-34 22,-60l0 -23c-22,24 -51,37 -88,37 -39,0 -72,-16 -97,-48 -25,-31 -38,-75 -38,-131zm76 7c0,34 7,60 21,80 14,20 33,29 58,29 31,0 53,-13 68,-39l0 -150c-14,-25 -37,-38 -67,-38 -26,0 -45,10 -59,30 -14,20 -21,49 -21,88zm451 172c-48,0 -87,-16 -117,-46 -30,-30 -45,-71 -45,-122l0 -9c0,-34 6,-64 20,-91 13,-26 31,-47 55,-62 23,-15 49,-22 79,-22 46,0 82,14 107,44 25,29 38,71 38,125l0 31 -222 0c2,28 11,50 28,66 16,17 37,25 62,25 35,0 63,-14 85,-43l41 40c-13,20 -32,36 -54,47 -23,11 -48,17 -77,17zm-9 -291c-21,0 -37,7 -50,22 -13,14 -21,35 -25,61l145 0 0 -6c-1,-25 -8,-45 -20,-58 -12,-13 -29,-19 -50,-19zm103 -111l0 4 -61 0 -47 -49 -47 49 -60 0 0 -4 85 -87 45 0 85 87zm172 56l2 39c26,-30 59,-45 99,-45 71,0 107,40 108,121l0 224 -76 0 0 -220c0,-21 -5,-37 -14,-48 -9,-10 -24,-15 -46,-15 -30,0 -53,14 -68,42l0 241 -77 0 0 -339 72 0zm426 285c19,0 35,-6 48,-17 12,-11 19,-25 20,-41l72 0c-1,21 -8,41 -20,59 -12,19 -29,33 -50,44 -21,10 -44,16 -69,16 -47,0 -85,-16 -113,-46 -28,-31 -41,-74 -41,-128l0 -8c0,-51 13,-93 41,-124 28,-31 65,-46 113,-46 40,0 73,11 99,35 25,23 38,54 40,93l-72 0c-1,-20 -8,-36 -20,-49 -13,-12 -28,-18 -48,-18 -24,0 -43,9 -57,26 -13,18 -20,45 -20,82l0 12c0,37 6,64 20,82 13,19 32,28 57,28zm278 54l-76 0 0 -339 76 0 0 339zm-81 -428c0,-11 4,-21 12,-29 7,-8 18,-12 31,-12 14,0 25,4 32,12 8,8 12,18 12,29 0,12 -4,22 -12,29 -7,8 -18,12 -32,12 -13,0 -24,-4 -31,-12 -8,-7 -12,-17 -12,-29zm367 428c-3,-6 -6,-17 -8,-31 -25,25 -54,38 -90,38 -34,0 -61,-10 -83,-30 -22,-19 -32,-43 -32,-72 0,-36 13,-64 40,-83 27,-20 65,-29 115,-29l47 0 0 -23c0,-17 -5,-31 -15,-42 -10,-10 -25,-16 -45,-16 -17,0 -31,5 -42,13 -11,9 -17,20 -17,34l-76 0c0,-19 6,-36 18,-53 13,-16 30,-29 51,-38 21,-9 45,-13 71,-13 40,0 71,10 95,30 23,19 36,48 36,84l0 153c0,30 5,55 13,73l0 5 -78 0zm-84 -54c16,0 30,-4 43,-11 13,-8 23,-18 30,-30l0 -64 -41 0c-28,0 -50,5 -64,15 -14,10 -21,23 -21,42 0,14 5,26 14,35 10,8 23,13 39,13z"/>
 </g>
</svg>
